<?xml version="1.0" encoding="utf-8"?>
<!-- Generator: Adobe Illustrator 27.9.1, SVG Export Plug-In . SVG Version: 6.00 Build 0)  -->
<svg version="1.1" id="Ebene_2_00000137131030043975517120000012964582251300370872_"
	 xmlns="http://www.w3.org/2000/svg" xmlns:xlink="http://www.w3.org/1999/xlink" x="0px" y="0px" viewBox="0 0 283.4 78.6"
	 style="enable-background:new 0 0 283.4 78.6;" xml:space="preserve">
<style type="text/css">
	.st0{fill:#3FB498;}
	.st1{fill:#005083;}
</style>
<g id="Ebene_1-2">
	<g id="kontron_2C">
		<polygon id="k" class="st0" points="14.1,0 0,0 0,51.5 14.1,33.1 		"/>
		<path id="ontron" class="st1" d="M44,14.1l-14.8,19l14.5,18.4H27L14.1,33.1l14.5-18.9C28.6,14.2,44,14.1,44,14.1z M65.6,13
			c-11.7,0-21.7,6-21.7,19.8s10,19.8,21.7,19.8s21.7-6,21.7-19.8C87.4,19.1,77.3,13,65.6,13z M58.4,32.8c0-5.3,1.3-11.6,7.2-11.6
			s7.2,6.3,7.2,11.6s-1.3,11.6-7.2,11.6S58.4,38.1,58.4,32.8z M118.1,13c-4.8,0-8.5,1.5-11.7,5.2l-0.2-4.1H92.3v37.3h14.1V30
			c0-0.4-0.9-8.1,6.1-8.1c4.4,0,5.3,3.9,5.4,7.6v21.9H132v-25C132,18.2,126.1,13,118.1,13z M138.2,39.7
			c-0.7,11.5,5.1,12.8,14.7,12.8c2.1,0,4.4-0.1,7.6-0.7v-8.4c-1.6,0.2-3.6,0.2-5.4,0.2c-3.3,0-2.7-4.8-2.7-5.8V23h8.2v-8.8h-8.2V0
			l-14.1,18.4C138.3,18.4,138.2,39.7,138.2,39.7z M181.1,14.1h-13.9v37.3h14.1v-15c-0.2-7.1,2.3-11.5,9.7-11.6c1,0,1.9,0,3,0.1V13
			c-6.2-0.1-10.9,1.9-12.5,8.1h-0.1C181.4,21.1,181.1,14.1,181.1,14.1z M217.7,13C206,13,196,19,196,32.8s10,19.8,21.7,19.8
			s21.7-6,21.7-19.8S229.3,13,217.7,13z M210.5,32.8c0-5.3,1.3-11.6,7.2-11.6s7.2,6.3,7.2,11.6s-1.3,11.6-7.2,11.6
			S210.5,38.1,210.5,32.8z M269.5,13c-4.8,0-8.5,1.5-11.7,5.2l-0.2-4.1h-13.9v37.3h14.1V30.1c0-0.4-0.9-8.1,6.1-8.1
			c4.4,0,5.3,3.9,5.4,7.6v21.9h14.1v-25C283.5,18.2,277.5,13,269.5,13z"/>
	</g>
	<path class="st1" d="M142.3,67.9h-4v-2.2h10.4v2.2h-4v10.4h-2.4L142.3,67.9L142.3,67.9z"/>
	<path class="st1" d="M152.1,65.7v4.9c0.8-1,1.8-1.3,2.8-1.3c2.5,0,3.6,1.7,3.6,4.3v4.7h-2.2v-4.7c0-1.6-0.9-2.3-2-2.3
		c-1.3,0-2.2,1.1-2.2,2.4v4.5h-2.2V65.7L152.1,65.7L152.1,65.7z"/>
	<path class="st1" d="M162.3,74.7c0.1,1.1,1.1,1.9,2.6,1.9c0.8,0,1.9-0.3,2.4-0.8l1.4,1.4c-0.9,1-2.5,1.4-3.8,1.4
		c-3.1,0-4.9-1.9-4.9-4.7s1.8-4.7,4.7-4.7s4.8,1.8,4.5,5.5L162.3,74.7L162.3,74.7z M167.1,72.8c-0.1-1.2-1-1.7-2.3-1.7
		c-1.2,0-2.2,0.6-2.5,1.7H167.1L167.1,72.8z"/>
	<path class="st1" d="M183,74.6h-3.6v3.7h-2.4V65.7c2,0,4,0,5.9,0C189.2,65.7,189.2,74.6,183,74.6L183,74.6z M179.4,72.4h3.6
		c3,0,3-4.5,0-4.5h-3.6V72.4z"/>
	<path class="st1" d="M197.9,73.9c0,2.6-1.8,4.6-4.6,4.6s-4.6-2.1-4.6-4.6s1.8-4.6,4.6-4.6S197.9,71.4,197.9,73.9L197.9,73.9z
		 M190.9,73.9c0,1.3,0.8,2.6,2.4,2.6s2.4-1.3,2.4-2.6s-0.9-2.6-2.4-2.6C191.7,71.3,190.9,72.6,190.9,73.9z"/>
	<path class="st1" d="M207.1,69.4l1.9,6.7l2-6.7h2.4l-3.1,8.9h-2.6l-0.9-2.6l-0.8-3l-0.8,3l-0.9,2.6h-2.6l-3.1-8.9h2.4l2,6.7
		l1.9-6.7H207.1L207.1,69.4z"/>
	<path class="st1" d="M216.6,74.7c0.1,1.1,1.1,1.9,2.6,1.9c0.8,0,1.9-0.3,2.4-0.8l1.4,1.4c-0.9,1-2.5,1.4-3.8,1.4
		c-3.1,0-4.9-1.9-4.9-4.7s1.8-4.7,4.7-4.7s4.8,1.8,4.5,5.5L216.6,74.7L216.6,74.7z M221.4,72.8c-0.1-1.2-1-1.7-2.3-1.7
		c-1.2,0-2.2,0.6-2.5,1.7H221.4L221.4,72.8z"/>
	<path class="st1" d="M227.2,69.4l0.2,1c0.7-1.1,1.6-1.3,2.5-1.3s1.8,0.4,2.3,0.8l-1,1.9c-0.4-0.4-0.9-0.6-1.6-0.6
		c-1.1,0-2.2,0.6-2.2,2.2v4.7h-2.2v-8.9H227.2L227.2,69.4z"/>
	<path class="st1" d="M246.6,73.9c0,2.6-1.8,4.6-4.6,4.6s-4.6-2.1-4.6-4.6s1.8-4.6,4.6-4.6S246.6,71.4,246.6,73.9L246.6,73.9z
		 M239.6,73.9c0,1.3,0.8,2.6,2.4,2.6s2.4-1.3,2.4-2.6s-0.9-2.6-2.4-2.6C240.4,71.3,239.6,72.6,239.6,73.9z"/>
	<path class="st1" d="M248.8,78.3v-6.8h-1.7v-1.9h1.7V69c0-2.4,1.6-3.5,3.4-3.5c0.8,0,1.6,0.2,2.3,0.7l-0.8,1.6
		c-0.5-0.3-0.9-0.5-1.4-0.5c-0.8,0-1.3,0.5-1.3,1.6v0.6h2.6v1.9H251v6.8L248.8,78.3L248.8,78.3z"/>
	<path class="st1" d="M261.4,78.3V65.7h2.4v12.6H261.4z"/>
	<path class="st1" d="M274.7,73.9c0,2.6-1.8,4.6-4.6,4.6s-4.6-2.1-4.6-4.6s1.8-4.6,4.6-4.6S274.7,71.4,274.7,73.9z M267.7,73.9
		c0,1.3,0.8,2.6,2.4,2.6s2.4-1.3,2.4-2.6s-0.9-2.6-2.4-2.6C268.5,71.3,267.7,72.6,267.7,73.9z"/>
	<path class="st1" d="M277,67.9h-4v-2.2h10.4v2.2h-4v10.4H277L277,67.9L277,67.9z"/>
</g>
</svg>
